<svg xmlns="http://www.w3.org/2000/svg" viewBox="0 0 200 200" role="img" aria-label="Drzewa ogrodowe">
  <ellipse cx="100" cy="180" rx="50" ry="5" fill="#000" opacity="0.08"/>
  <!-- Pień -->
  <rect x="93" y="155" width="14" height="25" rx="2" fill="#5A4A2A"/>
  <!-- Iglak — choinka ze stożków -->
  <path d="M100 35 L65 90 L80 90 L55 130 L78 130 L45 165 L155 165 L122 130 L145 130 L120 90 L135 90 Z" fill="#3A6E4A"/>
  <path d="M100 35 L70 80 L90 80 L70 115 L88 115 L62 150 L138 150 L112 115 L130 115 L110 80 L130 80 Z" fill="#5B8DB8" opacity="0"/>
  <path d="M100 50 L80 85 L92 85 L75 115 L92 115 L72 145 L128 145 L108 115 L125 115 L108 85 L120 85 Z" fill="#4F8666" opacity="0.7"/>
  <!-- Akcent niebieski (śnieg/zima) -->
  <path d="M70 89 L80 89 L75 94 Z" fill="#5B8DB8" opacity="0.55"/>
  <path d="M120 89 L130 89 L125 94 Z" fill="#5B8DB8" opacity="0.55"/>
  <path d="M85 129 L95 129 L90 134 Z" fill="#5B8DB8" opacity="0.45"/>
  <path d="M105 129 L115 129 L110 134 Z" fill="#5B8DB8" opacity="0.45"/>
  <!-- Gwiazda na czubku -->
  <circle cx="100" cy="40" r="4" fill="#E8C77E"/>
</svg>
