<svg xmlns="http://www.w3.org/2000/svg" viewBox="0 0 200 200" role="img" aria-label="Zioła">
  <ellipse cx="100" cy="180" rx="50" ry="5" fill="#000" opacity="0.08"/>
  <!-- Łodyga centralna -->
  <path d="M100 175 Q100 100 100 35" stroke="#5FA868" stroke-width="3.5" fill="none" stroke-linecap="round"/>
  <!-- Listki — pary po obu stronach -->
  <g fill="#78C47E">
    <ellipse cx="80" cy="55" rx="13" ry="8" transform="rotate(-30 80 55)"/>
    <ellipse cx="120" cy="55" rx="13" ry="8" transform="rotate(30 120 55)"/>
    <ellipse cx="74" cy="85" rx="16" ry="10" transform="rotate(-25 74 85)"/>
    <ellipse cx="126" cy="85" rx="16" ry="10" transform="rotate(25 126 85)"/>
    <ellipse cx="68" cy="120" rx="18" ry="11" transform="rotate(-20 68 120)"/>
    <ellipse cx="132" cy="120" rx="18" ry="11" transform="rotate(20 132 120)"/>
    <ellipse cx="78" cy="150" rx="14" ry="9" transform="rotate(-15 78 150)"/>
    <ellipse cx="122" cy="150" rx="14" ry="9" transform="rotate(15 122 150)"/>
  </g>
  <g stroke="#3D5A3D" stroke-width="1" fill="none" opacity="0.5">
    <line x1="80" y1="55" x2="100" y2="58"/>
    <line x1="120" y1="55" x2="100" y2="58"/>
    <line x1="74" y1="85" x2="100" y2="88"/>
    <line x1="126" y1="85" x2="100" y2="88"/>
    <line x1="68" y1="120" x2="100" y2="120"/>
    <line x1="132" y1="120" x2="100" y2="120"/>
  </g>
</svg>
