<svg xmlns="http://www.w3.org/2000/svg" viewBox="0 0 200 200" role="img" aria-label="Inne rośliny">
  <ellipse cx="100" cy="180" rx="50" ry="5" fill="#000" opacity="0.08"/>
  <!-- Łodyga -->
  <path d="M100 175 Q100 130 90 80" stroke="#9B9B9B" stroke-width="3" fill="none" stroke-linecap="round"/>
  <!-- Liść -->
  <path d="M90 80 Q60 70 50 40 Q70 25 100 35 Q130 25 150 40 Q140 70 110 80 Q105 90 100 90 Q95 90 90 80 Z" fill="#B5B5B5"/>
  <path d="M90 80 Q60 70 50 40 Q70 25 100 35 Q105 50 100 80 Q95 90 90 80 Z" fill="#9B9B9B"/>
  <!-- Żyłka centralna -->
  <path d="M100 35 Q98 60 92 80" stroke="#6E6E6E" stroke-width="1.5" fill="none"/>
  <!-- Żyłki boczne -->
  <path d="M97 50 Q80 50 65 45" stroke="#6E6E6E" stroke-width="1" fill="none" opacity="0.6"/>
  <path d="M98 60 Q80 62 65 60" stroke="#6E6E6E" stroke-width="1" fill="none" opacity="0.6"/>
  <path d="M96 50 Q115 48 130 42" stroke="#6E6E6E" stroke-width="1" fill="none" opacity="0.6"/>
  <path d="M97 62 Q115 62 130 60" stroke="#6E6E6E" stroke-width="1" fill="none" opacity="0.6"/>
</svg>
