<svg xmlns="http://www.w3.org/2000/svg" viewBox="0 0 200 200" role="img" aria-label="Warzywa">
  <ellipse cx="100" cy="180" rx="55" ry="5" fill="#000" opacity="0.08"/>
  <!-- Sałata po lewej -->
  <g transform="translate(50 110)">
    <ellipse cx="0" cy="35" rx="42" ry="20" fill="#5FA868"/>
    <path d="M-38 30 Q-30 -5 -10 0 Q5 -15 18 -5 Q35 -10 38 25" fill="#78C47E"/>
    <path d="M-30 25 Q-20 0 -5 5 Q10 -5 22 5 Q30 0 32 22" fill="#9DD89E" opacity="0.7"/>
  </g>
  <!-- Marchewka po prawej -->
  <g transform="translate(130 80)">
    <path d="M-5 -5 L-10 25 L0 80 L10 25 L5 -5 Z" fill="#E8A87C"/>
    <path d="M-5 -5 L-10 25 L0 80 L10 25 L5 -5 Z" fill="#56C596" opacity="0"/>
    <path d="M-2 35 L-7 50 M2 40 L7 55 M0 60 L0 70" stroke="#B3744D" stroke-width="1.5" fill="none" stroke-linecap="round"/>
    <path d="M-6 -8 Q-12 -25 -4 -30 M0 -8 Q-2 -30 4 -32 M6 -8 Q14 -25 8 -32" stroke="#5FA868" stroke-width="3" fill="none" stroke-linecap="round"/>
  </g>
</svg>
